<svg xmlns="http://www.w3.org/2000/svg" viewBox="0 0 554.6 503.7"><defs><style>.cls-1{fill:#4e4a99;}.cls-2,.cls-6{fill:#f8ab13;}.cls-3{fill:#3e3978;}.cls-4{fill:#fff;}.cls-5{fill:#f39319;}.cls-6{font-size:123px;font-family:BellinzoRegularRegular, Bellinzo Regular;letter-spacing:-0.04em;}</style></defs><g id="Calque_2" data-name="Calque 2"><g id="Laag_1" data-name="Laag 1"><path class="cls-1" d="M79.16,360.5A41.65,41.65,0,0,1,65,370.41a48.46,48.46,0,0,1-19.7,3.72,47.8,47.8,0,0,1-19.88-3.84A42,42,0,0,1,11.33,360.2,42.4,42.4,0,0,1,2.85,346,48.35,48.35,0,0,1,0,329.6a48.88,48.88,0,0,1,2.85-16.42,42.32,42.32,0,0,1,8.48-14.3,42.07,42.07,0,0,1,14.13-10.1,47.8,47.8,0,0,1,19.88-3.84A47.78,47.78,0,0,1,65,288.72a41.8,41.8,0,0,1,14.12,10.09l-10.28,8.55A29.53,29.53,0,0,0,59,300.18a33,33,0,0,0-13.88-2.73q-10.53,0-17.59,4.76a30.64,30.64,0,0,0-10.59,11.87,35.6,35.6,0,0,0,0,30.91A30.57,30.57,0,0,0,27.5,356.86q7.06,4.75,17.59,4.76A33.67,33.67,0,0,0,58.78,359a29.25,29.25,0,0,0,9.85-6.94l10.28,8.54Z"/><path class="cls-1" d="M84.11,309.1H96.62v6.31a19.87,19.87,0,0,1,4.71-3.65,28.4,28.4,0,0,1,5.82-2.48,36.73,36.73,0,0,1,6.32-1.3,31.91,31.91,0,0,1,6.32-.12V320a30.27,30.27,0,0,0-11.4.74,14.85,14.85,0,0,0-7.06,4.34,16.94,16.94,0,0,0-3.65,7.18,38.5,38.5,0,0,0-1.06,9.42V372H84.11Z"/><path class="cls-1" d="M151.25,373.39q-11,0-18.46-4.83a30.83,30.83,0,0,1-11.08-12.14A35.23,35.23,0,0,1,118,340.68,33.68,33.68,0,0,1,121.65,325a31.43,31.43,0,0,1,11.08-12.14q7.38-4.83,18.52-4.83t18.52,4.83A31.54,31.54,0,0,1,180.86,325a33.67,33.67,0,0,1,3.65,15.73,35.36,35.36,0,0,1-3.71,15.74,30.85,30.85,0,0,1-11.09,12.14Q162.27,373.39,151.25,373.39Zm0-56a18.58,18.58,0,0,0-11.52,3.46,21.84,21.84,0,0,0-6.87,8.61,28.49,28.49,0,0,0,0,22.43,21.74,21.74,0,0,0,6.87,8.6,20.86,20.86,0,0,0,23,0,21.77,21.77,0,0,0,6.88-8.6,28.61,28.61,0,0,0,0-22.43,21.87,21.87,0,0,0-6.88-8.61A18.54,18.54,0,0,0,151.25,317.4Z"/><path class="cls-1" d="M250,356.66l13.13-47.44h14.75l-20.57,62.93H242.55l-13-48.31-13,48.31H201.79l-20.56-62.93H196l13.13,47.44,13.13-47.44H236.6Z"/><path class="cls-1" d="M330.26,285.44h12.63v86.71H330.26v-8.92a26,26,0,0,1-9.48,7.68A30.32,30.32,0,0,1,297.37,372a31,31,0,0,1-18.09-16.73,38.1,38.1,0,0,1,0-29.23,31.36,31.36,0,0,1,7.57-10.47,31.79,31.79,0,0,1,10.55-6.26,30.42,30.42,0,0,1,23.45,1.12,26,26,0,0,1,9.5,7.68Zm-20.63,32a19.78,19.78,0,0,0-9.08,2,19.42,19.42,0,0,0-6.48,5.26,22.69,22.69,0,0,0-3.89,7.5,28.73,28.73,0,0,0,0,17.09,22.69,22.69,0,0,0,3.89,7.5,19.3,19.3,0,0,0,6.48,5.26,21.81,21.81,0,0,0,18.16,0,19.3,19.3,0,0,0,6.48-5.26,22.69,22.69,0,0,0,3.89-7.5,28.73,28.73,0,0,0,0-17.09,22.69,22.69,0,0,0-3.89-7.5,19.42,19.42,0,0,0-6.48-5.26A19.75,19.75,0,0,0,309.63,317.4Z"/><path class="cls-2" d="M384.76,284.94a57.32,57.32,0,0,1,18.58,3.16A65,65,0,0,1,418.83,296l-6.94,7.93-1.49,1.74A43.06,43.06,0,0,0,396.22,298a38.1,38.1,0,0,0-13-1.67A26,26,0,0,0,372.75,299a15.88,15.88,0,0,0-6.45,5.45,7.8,7.8,0,0,0-1,6.57q1,3.41,5.82,6.13a60,60,0,0,0,12.21,5q6.87,2.05,13.56,4.46a65.87,65.87,0,0,1,12.2,5.83,20.57,20.57,0,0,1,8.12,9.1,23.18,23.18,0,0,1,1.92,7.74,21.28,21.28,0,0,1-1.18,8.49,16.83,16.83,0,0,1-3,5.39,23.62,23.62,0,0,1-4.59,4.27,35.29,35.29,0,0,1-11.76,5.21,57.71,57.71,0,0,1-12.52,1.73,67.14,67.14,0,0,1-10.71-.81,51.58,51.58,0,0,1-9.6-2.47,53,53,0,0,1-9-4.34,63.34,63.34,0,0,1-9-6.63l6.82-7.8,1.73-2a48.83,48.83,0,0,0,15.24,9.6,46.93,46.93,0,0,0,17,2.66,20.81,20.81,0,0,0,9.35-2.17,17.21,17.21,0,0,0,6.63-5.32,8.18,8.18,0,0,0,1.42-6.75q-.81-3.6-6-6.69a44.58,44.58,0,0,0-8.61-3.78q-5-1.68-10.4-3.35c-3.59-1.11-7.15-2.33-10.65-3.65a45.4,45.4,0,0,1-9.42-4.77,24.09,24.09,0,0,1-6.69-6.57,15.21,15.21,0,0,1-2.41-9.1,21.36,21.36,0,0,1,3-11,26.53,26.53,0,0,1,7.56-7.92,34.28,34.28,0,0,1,10.47-4.84,44.05,44.05,0,0,1,11.76-1.61Z"/><path class="cls-2" d="M457.1,363.85a19.24,19.24,0,0,0,10.35-2.66,19.92,19.92,0,0,0,6.75-6.88l9.17,7.06A30.26,30.26,0,0,1,472.71,370a34.53,34.53,0,0,1-15.61,3.28A36.27,36.27,0,0,1,443.73,371a30.75,30.75,0,0,1-10-6.19,29.82,29.82,0,0,1-6.56-9A35.8,35.8,0,0,1,424,345.27a36.23,36.23,0,0,1,0-9.42,35.8,35.8,0,0,1,3.16-10.53,30,30,0,0,1,6.56-9,30.92,30.92,0,0,1,10-6.19,40.2,40.2,0,0,1,26.75,0,31,31,0,0,1,10,6.19,30,30,0,0,1,6.56,9,35.8,35.8,0,0,1,3.16,10.53,36.23,36.23,0,0,1,0,9.42H436.91a27.82,27.82,0,0,0,2.17,7.06,21.31,21.31,0,0,0,4.09,5.95,18.23,18.23,0,0,0,6.07,4.08,20.43,20.43,0,0,0,8,1.49Zm20.44-28a27.53,27.53,0,0,0-2.16-7.06,21.32,21.32,0,0,0-4.09-5.94,18.21,18.21,0,0,0-6.07-4.09,22.17,22.17,0,0,0-16,0,18.11,18.11,0,0,0-6.07,4.09,21.11,21.11,0,0,0-4.09,5.94,27.94,27.94,0,0,0-2.17,7.06h40.63Z"/><path class="cls-2" d="M543.94,369.92a34.55,34.55,0,0,1-15.85,3.34q-11,0-18.46-4.83a30.79,30.79,0,0,1-11.09-12.14,35.32,35.32,0,0,1-3.71-15.73,33.52,33.52,0,0,1,3.65-15.73,31.46,31.46,0,0,1,11.09-12.14q7.37-4.83,18.52-4.83a34.55,34.55,0,0,1,15.85,3.34A30.18,30.18,0,0,1,554.6,320l-9.17,7.18a20.42,20.42,0,0,0-6.81-7.12,19.07,19.07,0,0,0-10.53-2.79,18.54,18.54,0,0,0-11.52,3.47,21.73,21.73,0,0,0-6.88,8.61,28.58,28.58,0,0,0,0,22.42,21.73,21.73,0,0,0,6.88,8.61,18.54,18.54,0,0,0,11.52,3.47,19.07,19.07,0,0,0,10.53-2.79,20.42,20.42,0,0,0,6.81-7.12l9.17,7.18A30.18,30.18,0,0,1,543.94,369.92Z"/><path class="cls-1" d="M245.26,236.28c32.7,0,59.49-50,66.12-111.28a14.32,14.32,0,0,0,13.85-11.79h0a14.91,14.91,0,0,0,.24-2.24l.42,0a9,9,0,0,0,5.51-16.49,14.32,14.32,0,0,0-3.63-27.24,9,9,0,0,0-6.92-14.55,14.64,14.64,0,0,0,5.8-5.09c3.36-5.27,3.9-29-8-44.32-4.93-6.29-9.75-2.5-10.06,1.8-.93,13.15-1.05,23-4.46,34.28a9,9,0,0,0-16-4.12,14.31,14.31,0,0,0-28.33,0,9,9,0,0,0-16,4.08c-3.41-11.25-3.53-21.13-4.47-34.28-.3-4.3-5.12-8.09-10.05-1.8-11.94,15.28-11.4,39.05-8,44.32A14.68,14.68,0,0,0,227,52.74a9,9,0,0,0-6.91,14.55,14.32,14.32,0,0,0-3.63,27.24A9,9,0,0,0,222,111l.42,0a14,14,0,0,0,.23,2.16h0A14.3,14.3,0,0,0,236.71,125h0c-4,17.16-10.06,66.27-15,111.24.28-2.55.88-5.11,1.16-7.68C230,233.56,237.32,236.28,245.26,236.28Z"/><path class="cls-3" d="M274.14,248.81c18.25,0,36,.29,52.86.83q-.66-6.24-1.35-12.64c-1.81-16.74-3.61-34.58-5.46-51.31-3.2-26.82-6.34-50-8.81-60.69-6.63,61.32-33.42,111.28-66.12,111.28-7.94,0-15.25-2.72-22.34-7.71-.28,2.57-.88,5.13-1.16,7.68-.49,4.53-.92,9-1.33,13.42C237.59,249.11,255.59,248.81,274.14,248.81Z"/><path class="cls-1" d="M218.86,114.76a13,13,0,0,1-7-4,37.69,37.69,0,0,0-5.52,1.63,16.35,16.35,0,0,1-11.61,0,43.51,43.51,0,0,0-14.23-2.6,61.93,61.93,0,0,0-19.67,2.49c0,2.22,0,4.23,0,6.23a3.68,3.68,0,0,0,.68,1.45,21.56,21.56,0,0,1,1.94,3.37c1,2.73,1.62,5.58,2.59,8.31a7.74,7.74,0,0,0,6.49,5.46,71,71,0,0,0,11.17.72,13.26,13.26,0,0,0,6.21-1.6,60.91,60.91,0,0,1,4.52-13c2.91-5.77,7.55-6,10.69,0a54.52,54.52,0,0,1,4.31,11.93,9.45,9.45,0,0,0,3.87,1.91,32.73,32.73,0,0,0,14.8.16,11.71,11.71,0,0,0,2.28-.73c.5-3,1-5.77,1.48-8.19A18.28,18.28,0,0,1,218.86,114.76Z"/><path class="cls-4" d="M214.61,160.9a72.56,72.56,0,0,0-2-12c-1.15-4.58-2-9.17-3.12-13.67a54.52,54.52,0,0,0-4.31-11.93c-3.14-6-7.78-5.77-10.69,0a60.91,60.91,0,0,0-4.52,13c-1,4.17-1.85,8.39-2.91,12.63a72.56,72.56,0,0,0-2,12c-.5,6.25,3.59,11.64,8.72,11.64h12.07C211,172.54,215.11,167.15,214.61,160.9ZM201.7,146c0,2.74,0,5.47-.26,8.16-.27,3.3-.41,6.58-.92,9.66-.36,2.17-.94,2.27-1.33,0-.52-3.06-.65-6.36-.92-9.66-.23-2.69-.3-5.42-.26-8.16-3.58-.95-6.42-4.58-7.25-9.24a18.37,18.37,0,0,0,18.19,0C208.12,141.42,205.28,145.05,201.7,146Z"/><path class="cls-5" d="M190.76,136.76c.83,4.66,3.67,8.29,7.25,9.24,0,2.74,0,5.47.26,8.16.27,3.3.4,6.6.92,9.66.39,2.27,1,2.17,1.33,0,.51-3.08.65-6.36.92-9.66.23-2.69.3-5.42.26-8.16,3.58-.95,6.42-4.58,7.25-9.24a18.37,18.37,0,0,1-18.19,0Z"/><path class="cls-1" d="M329,114.76a18.35,18.35,0,0,1-12.83,13.54c.42,2.13.86,4.59,1.32,7.35a7.61,7.61,0,0,0,3.7,1.5,70.89,70.89,0,0,0,11.17.72,13.26,13.26,0,0,0,6.21-1.6,60.91,60.91,0,0,1,4.52-13c2.9-5.77,7.55-6,10.68,0a54,54,0,0,1,4.32,11.93,9.45,9.45,0,0,0,3.87,1.91,32.73,32.73,0,0,0,14.8.16,8.83,8.83,0,0,0,7.08-6.14c.85-2.51,1.59-5,2.27-7.61.39-1.45.56-2.92,2.2-3.64.31-.14.51-.86.52-1.32.06-2.07,0-4.13,0-6.61-4-.65-7.93-1.52-11.9-1.87-7.45-.68-14.84-.39-22,2.33a16.35,16.35,0,0,1-11.61,0,43.34,43.34,0,0,0-7.14-1.92A13,13,0,0,1,329,114.76Z"/><path class="cls-4" d="M363.18,160.9a72.56,72.56,0,0,0-2-12c-1.15-4.58-2-9.17-3.12-13.67a54,54,0,0,0-4.32-11.93c-3.13-6-7.78-5.77-10.68,0a60.91,60.91,0,0,0-4.52,13c-1,4.17-1.85,8.39-2.91,12.63a72.56,72.56,0,0,0-2,12c-.5,6.25,3.58,11.64,8.72,11.64h12.07C359.59,172.54,363.68,167.15,363.18,160.9ZM350.27,146c0,2.74,0,5.47-.26,8.16-.27,3.3-.41,6.58-.92,9.66-.36,2.17-.94,2.27-1.33,0-.52-3.06-.65-6.36-.92-9.66a79,79,0,0,1-.26-8.16c-3.58-.95-6.42-4.58-7.25-9.24a18.37,18.37,0,0,0,18.19,0C356.69,141.42,353.85,145.05,350.27,146Z"/><path class="cls-5" d="M339.33,136.76c.83,4.66,3.67,8.29,7.25,9.24a79,79,0,0,0,.26,8.16c.27,3.3.4,6.6.92,9.66.39,2.27,1,2.17,1.33,0,.51-3.08.65-6.36.92-9.66.22-2.69.3-5.42.26-8.16,3.58-.95,6.42-4.58,7.25-9.24a18.37,18.37,0,0,1-18.19,0Z"/><path class="cls-5" d="M378.46,153.13c2,8.59,4.5,27.16,7.06,48.67C383.28,181.5,381,163.22,378.46,153.13Z"/><g id="IgKKMw"><path class="cls-2" d="M225.33,74.13A76.85,76.85,0,0,1,249.86,71a54.08,54.08,0,0,1,17.74,3.24,20.35,20.35,0,0,0,14.48,0c8.92-3.38,18.12-3.75,27.42-2.9,4.94.44,9.82,1.52,14.83,2.33,0,3.09,0,5.67,0,8.24,0,.58-.26,1.48-.66,1.65-2,.9-2.25,2.73-2.73,4.54-.85,3.19-1.78,6.36-2.83,9.48a11,11,0,0,1-8.83,7.66,40.62,40.62,0,0,1-18.45-.2,10.77,10.77,0,0,1-7.55-5.89c-1.9-3.92-3.72-7.87-5.79-11.7a4.19,4.19,0,0,0-2.77-2.07c-.8-.06-2,1.14-2.49,2.06A71.22,71.22,0,0,0,268.15,96c-2.53,6.6-7.5,9.8-14.26,10a87.86,87.86,0,0,1-13.93-.9,9.63,9.63,0,0,1-8.1-6.8c-1.2-3.41-2-7-3.22-10.36a28.23,28.23,0,0,0-2.42-4.21,4.42,4.42,0,0,1-.85-1.8C225.27,79.4,225.33,76.9,225.33,74.13Z"/></g><path class="cls-4" d="M289.86,119.72c-2.74-10.88-4-21.81-9.27-31.91-3.91-7.51-9.7-7.2-13.32,0-5.11,10.17-6.53,21-9.27,31.91a90.43,90.43,0,0,0-2.47,15c-.62,7.79,4.47,14.51,10.88,14.51h15c6.4,0,11.5-6.72,10.88-14.51A91.49,91.49,0,0,0,289.86,119.72Z"/><path class="cls-1" d="M285.27,104.59a22.93,22.93,0,0,1-22.68,0c1,5.81,4.58,10.34,9,11.51a101.26,101.26,0,0,0,.32,10.19c.34,4.1.5,8.22,1.15,12,.49,2.83,1.21,2.71,1.66,0,.63-3.84.81-7.94,1.15-12,.28-3.35.37-6.76.32-10.19C280.69,114.93,284.23,110.4,285.27,104.59Z"/><path class="cls-2" d="M176.87,242.38c20,0,37.28-23.37,46.69-56.31,2.22-18,4.67-36.29,6.9-49.5a11.71,11.71,0,0,1-2.28.73,32.73,32.73,0,0,1-14.8-.16,9.45,9.45,0,0,1-3.87-1.91c1.14,4.5,2,9.09,3.12,13.67a72.56,72.56,0,0,1,2,12c.5,6.25-3.59,11.64-8.72,11.64H193.82c-5.13,0-9.22-5.39-8.72-11.64a72.56,72.56,0,0,1,2-12c1.06-4.24,1.88-8.46,2.91-12.63a13.26,13.26,0,0,1-6.21,1.6,71,71,0,0,1-11.17-.72,7.74,7.74,0,0,1-6.49-5.46c-1-2.73-1.62-5.58-2.59-8.31a21.56,21.56,0,0,0-1.94-3.37,3.68,3.68,0,0,1-.68-1.45c-.08-2,0-4,0-6.23a61.93,61.93,0,0,1,19.67-2.49,43.51,43.51,0,0,1,14.23,2.6,16.35,16.35,0,0,0,11.61,0,37.69,37.69,0,0,1,5.52-1.63,13,13,0,0,1-1.59-15.49,18.38,18.38,0,0,1-4.39-22.21,11.46,11.46,0,0,0-17.42,8.1,7.23,7.23,0,0,0-12.85,3.28c-2.73-9-2.82-17-3.57-27.5-.25-3.45-4.12-6.49-8.07-1.44-9.58,12.25-9.14,31.31-6.45,35.54a11.67,11.67,0,0,0,4.65,4.08,7.23,7.23,0,0,0-5.55,11.67,11.49,11.49,0,0,0-2.9,21.85,7.23,7.23,0,0,0,4.42,13.22l.33,0a11,11,0,0,0,.18,1.73h0A11.49,11.49,0,0,0,170,153.14h0c-3.18,13.76-8.07,53.15-12,89.21.22-2,.7-4.1.93-6.16C164.64,240.19,170.5,242.38,176.87,242.38Z"/><path class="cls-5" d="M217.79,235.81c1.27-11.64,3.39-30.48,5.77-49.74-9.41,32.94-26.67,56.31-46.69,56.31-6.37,0-12.23-2.19-17.92-6.19-.23,2.06-.71,4.12-.93,6.16-.4,3.67-.75,7.28-1.08,10.85,18.09-1.49,38.1-2.65,59.46-3.4C216.82,245.23,217.27,240.54,217.79,235.81Z"/><path class="cls-2" d="M378.46,153.13a11.48,11.48,0,0,0,11.11-9.45h0a13.39,13.39,0,0,0,.19-1.8l.33,0a7.23,7.23,0,0,0,4.42-13.22,11.49,11.49,0,0,0-2.9-21.85,7.23,7.23,0,0,0-5.55-11.67,11.67,11.67,0,0,0,4.65-4.08c2.69-4.23,3.12-23.29-6.46-35.54-3.94-5-7.81-2-8.06,1.44-.75,10.54-.84,18.47-3.58,27.5a7.22,7.22,0,0,0-12.81-3.31A11.47,11.47,0,0,0,342,73.33a18.38,18.38,0,0,1-4.5,22,13,13,0,0,1-1.33,15.2,43.34,43.34,0,0,1,7.14,1.92,16.35,16.35,0,0,0,11.61,0c7.15-2.72,14.54-3,22-2.33,4,.35,7.88,1.22,11.9,1.87,0,2.48,0,4.54,0,6.61,0,.46-.21,1.18-.52,1.32-1.64.72-1.81,2.19-2.2,3.64-.68,2.56-1.42,5.1-2.27,7.61a8.83,8.83,0,0,1-7.08,6.14,32.73,32.73,0,0,1-14.8-.16,9.45,9.45,0,0,1-3.87-1.91c1.14,4.5,2,9.09,3.12,13.67a72.56,72.56,0,0,1,2,12c.5,6.25-3.59,11.64-8.72,11.64H342.39c-5.14,0-9.22-5.39-8.72-11.64a72.56,72.56,0,0,1,2-12c1.06-4.24,1.88-8.46,2.91-12.63a13.26,13.26,0,0,1-6.21,1.6,70.89,70.89,0,0,1-11.17-.72,7.61,7.61,0,0,1-3.7-1.5c3.06,18.48,7.1,51.23,12.46,100.92.19,1.73.38,3.5.57,5.3C354.39,237.1,373.49,199.1,378.46,153.13Z"/><path class="cls-5" d="M389.9,243c-1.44-13.42-2.89-27.73-4.38-41.15-2.56-21.51-5.08-40.08-7.06-48.67-5,46-24.07,84-47.95,88.74l.84,7.92c21.43.74,41.49,1.89,59.65,3.38C390.64,249.81,390.28,246.4,389.9,243Z"/><path class="cls-1" d="M327,249.64h.32q-.68-6.24-1.36-12.65c-1.84-17.14-3.82-34.91-5.77-51.31,1.85,16.73,3.65,34.57,5.46,51.31Q326.34,243.39,327,249.64Z"/><path class="cls-3" d="M311.38,125c2.47,10.71,5.61,33.87,8.81,60.69C317.39,160.37,314.5,137.59,311.38,125Z"/><path class="cls-3" d="M221.76,236.25q-.73,6.8-1.46,13.42h.13C220.84,245.26,221.27,240.78,221.76,236.25Z"/><text class="cls-6" transform="translate(168.38 478.73)">Hub</text></g></g></svg>