<svg xmlns="http://www.w3.org/2000/svg" viewBox="0 0 275.05 249.81"><defs><style>.cls-1{fill:#4e4a99;}.cls-2,.cls-6{fill:#f8ab13;}.cls-3{fill:#3e3978;}.cls-4{fill:#fff;}.cls-5{fill:#f39319;}.cls-6{font-size:61px;font-family:BellinzoRegularRegular, Bellinzo Regular;letter-spacing:-0.04em;}</style></defs><g id="Calque_2" data-name="Calque 2"><g id="Laag_1" data-name="Laag 1"><path class="cls-1" d="M39.26,178.79a20.79,20.79,0,0,1-7,4.92,24.14,24.14,0,0,1-9.76,1.84,23.86,23.86,0,0,1-9.86-1.9,20.78,20.78,0,0,1-7-5,21.06,21.06,0,0,1-4.21-7.07A24,24,0,0,1,0,163.46a24.34,24.34,0,0,1,1.41-8.14,21,21,0,0,1,4.21-7.09,20.78,20.78,0,0,1,7-5,23.7,23.7,0,0,1,9.86-1.9,23.64,23.64,0,0,1,9.76,1.87,20.72,20.72,0,0,1,7,5l-5.1,4.24a14.52,14.52,0,0,0-4.92-3.57,16.37,16.37,0,0,0-6.88-1.35,14.84,14.84,0,0,0-14,8.25,17.57,17.57,0,0,0,0,15.33,14.85,14.85,0,0,0,14,8.24,16.65,16.65,0,0,0,6.79-1.29A14.39,14.39,0,0,0,34,174.61l5.09,4.24Z"/><path class="cls-1" d="M41.71,153.3h6.21v3.13a9.62,9.62,0,0,1,2.33-1.81,13.23,13.23,0,0,1,2.89-1.23,18.62,18.62,0,0,1,3.14-.65,16.42,16.42,0,0,1,3.13-.06v6a15.17,15.17,0,0,0-5.65.37,7.41,7.41,0,0,0-3.51,2.15,8.42,8.42,0,0,0-1.81,3.56,19.24,19.24,0,0,0-.52,4.67V184.5H41.71Z"/><path class="cls-1" d="M75,185.18a16.44,16.44,0,0,1-9.15-2.4,15.22,15.22,0,0,1-5.5-6,17.42,17.42,0,0,1-1.84-7.8,16.7,16.7,0,0,1,1.81-7.8,15.59,15.59,0,0,1,5.5-6,16.39,16.39,0,0,1,9.18-2.4,16.42,16.42,0,0,1,9.19,2.4,15.67,15.67,0,0,1,5.5,6,16.7,16.7,0,0,1,1.81,7.8,17.55,17.55,0,0,1-1.84,7.8,15.29,15.29,0,0,1-5.5,6A16.45,16.45,0,0,1,75,185.18Zm0-27.77a9.23,9.23,0,0,0-5.71,1.72,10.8,10.8,0,0,0-3.41,4.27,14.13,14.13,0,0,0,0,11.12,10.73,10.73,0,0,0,3.41,4.27,10.35,10.35,0,0,0,11.43,0,10.82,10.82,0,0,0,3.41-4.27,14.24,14.24,0,0,0,0-11.12,10.89,10.89,0,0,0-3.41-4.27A9.26,9.26,0,0,0,75,157.41Z"/><path class="cls-1" d="M124,176.89l6.51-23.53h7.31l-10.2,31.21h-7.31l-6.45-24-6.45,24h-7.31l-10.2-31.21h7.31l6.51,23.53,6.52-23.53h7.12Z"/><path class="cls-1" d="M163.79,141.56h6.27v43h-6.27v-4.43a12.91,12.91,0,0,1-4.7,3.81,15.24,15.24,0,0,1-5.71,1.45,15,15,0,0,1-5.9-.9,15.35,15.35,0,0,1-9-8.29,19,19,0,0,1,0-14.5,15.38,15.38,0,0,1,9-8.29,15.09,15.09,0,0,1,11.63.55,12.86,12.86,0,0,1,4.71,3.81Zm-10.23,15.85a9.82,9.82,0,0,0-4.5,1,9.61,9.61,0,0,0-3.22,2.62,11.21,11.21,0,0,0-1.93,3.71,14.37,14.37,0,0,0,0,8.48,11.36,11.36,0,0,0,1.93,3.72,9.7,9.7,0,0,0,3.22,2.61,10.82,10.82,0,0,0,9,0,9.7,9.7,0,0,0,3.22-2.61,11.36,11.36,0,0,0,1.93-3.72,14.36,14.36,0,0,0,0-8.48,11.21,11.21,0,0,0-1.93-3.71,9.61,9.61,0,0,0-3.22-2.62A9.85,9.85,0,0,0,153.56,157.41Z"/><path class="cls-2" d="M190.82,141.32a28.52,28.52,0,0,1,9.22,1.56,33,33,0,0,1,7.68,3.9l-3.44,3.93-.74.87a21.17,21.17,0,0,0-7-3.78,18.59,18.59,0,0,0-6.45-.83,13,13,0,0,0-5.19,1.32,7.92,7.92,0,0,0-3.19,2.7,3.84,3.84,0,0,0-.49,3.26,5.56,5.56,0,0,0,2.88,3,30.3,30.3,0,0,0,6.05,2.49q3.42,1,6.73,2.21a32.23,32.23,0,0,1,6,2.89,10.15,10.15,0,0,1,4,4.51,11.41,11.41,0,0,1,1,3.84,10.55,10.55,0,0,1-.58,4.21,8.33,8.33,0,0,1-1.48,2.67,11.45,11.45,0,0,1-2.27,2.12,17.44,17.44,0,0,1-5.84,2.58,28.66,28.66,0,0,1-6.2.86,33.14,33.14,0,0,1-5.32-.4,24.81,24.81,0,0,1-4.76-1.23,25.47,25.47,0,0,1-4.48-2.15,31.86,31.86,0,0,1-4.49-3.28l3.38-3.87.86-1a24.25,24.25,0,0,0,7.56,4.77,23.32,23.32,0,0,0,8.41,1.32,10.3,10.3,0,0,0,4.64-1.08,8.57,8.57,0,0,0,3.29-2.64,4.07,4.07,0,0,0,.71-3.35c-.27-1.19-1.26-2.29-3-3.32a22.84,22.84,0,0,0-4.27-1.87c-1.66-.55-3.38-1.11-5.16-1.66s-3.55-1.16-5.29-1.81a23.21,23.21,0,0,1-4.67-2.37,11.79,11.79,0,0,1-3.31-3.25,7.6,7.6,0,0,1-1.2-4.52,10.62,10.62,0,0,1,1.5-5.47,13.24,13.24,0,0,1,3.75-3.93,17.11,17.11,0,0,1,5.19-2.39,21.53,21.53,0,0,1,5.84-.8Z"/><path class="cls-2" d="M226.7,180.45a9.5,9.5,0,0,0,5.13-1.32,9.93,9.93,0,0,0,3.35-3.41l4.54,3.5a14.91,14.91,0,0,1-5.28,4.27,17.06,17.06,0,0,1-7.74,1.63,18,18,0,0,1-6.64-1.14,15.19,15.19,0,0,1-4.94-3.07,14.82,14.82,0,0,1-3.26-4.45,17.51,17.51,0,0,1,0-15.12,14.82,14.82,0,0,1,3.26-4.45,15.36,15.36,0,0,1,4.94-3.07,19.88,19.88,0,0,1,13.27,0,15.3,15.3,0,0,1,4.95,3.07,14.82,14.82,0,0,1,3.26,4.45,17.51,17.51,0,0,1,1.56,9.89H216.69a13.6,13.6,0,0,0,1.07,3.51,10.56,10.56,0,0,0,2,2.95,9,9,0,0,0,3,2,10.16,10.16,0,0,0,4,.74Zm10.14-13.88a14,14,0,0,0-1.08-3.51,10.56,10.56,0,0,0-2-2.95,9,9,0,0,0-3-2,11,11,0,0,0-7.92,0,9,9,0,0,0-3,2,10.56,10.56,0,0,0-2,2.95,13.6,13.6,0,0,0-1.07,3.51h20.15Z"/><path class="cls-2" d="M269.77,183.46a17.1,17.1,0,0,1-7.87,1.66,16.44,16.44,0,0,1-9.15-2.4,15.22,15.22,0,0,1-5.5-6,17.42,17.42,0,0,1-1.84-7.8,16.67,16.67,0,0,1,1.81-7.8,15.52,15.52,0,0,1,5.5-6,16.39,16.39,0,0,1,9.18-2.4,17.1,17.1,0,0,1,7.87,1.66,15,15,0,0,1,5.28,4.36l-4.55,3.57a10.1,10.1,0,0,0-3.37-3.54,9.51,9.51,0,0,0-5.23-1.38,9.16,9.16,0,0,0-5.71,1.72,10.8,10.8,0,0,0-3.41,4.27,14.13,14.13,0,0,0,0,11.12,10.8,10.8,0,0,0,3.41,4.27,9.16,9.16,0,0,0,5.71,1.72,9.51,9.51,0,0,0,5.23-1.38,10.15,10.15,0,0,0,3.37-3.53l4.55,3.56A15,15,0,0,1,269.77,183.46Z"/><path class="cls-1" d="M121.64,117.18c16.21,0,29.5-24.77,32.79-55.19a7.1,7.1,0,0,0,6.87-5.84h0a6.84,6.84,0,0,0,.11-1.11l.21,0a4.47,4.47,0,0,0,2.73-8.18,7.1,7.1,0,0,0-1.79-13.51,4.48,4.48,0,0,0-3.43-7.22A7.17,7.17,0,0,0,162,23.63c1.67-2.61,1.94-14.4-4-22-2.44-3.12-4.83-1.24-5,.89-.47,6.52-.52,11.42-2.22,17a4.46,4.46,0,0,0-7.92-2.05,7.1,7.1,0,0,0-14,0,4.47,4.47,0,0,0-7.94,2c-1.7-5.59-1.75-10.49-2.22-17-.15-2.13-2.54-4-5-.89-5.93,7.58-5.66,19.37-4,22a7.17,7.17,0,0,0,2.87,2.52,4.47,4.47,0,0,0-3.43,7.22,7.1,7.1,0,0,0-1.8,13.51,4.47,4.47,0,0,0,2.74,8.18l.2,0a7.62,7.62,0,0,0,.12,1.07h0a7.09,7.09,0,0,0,7,5.89h0c-2,8.51-5,32.87-7.43,55.17.14-1.27.44-2.54.58-3.81A19,19,0,0,0,121.64,117.18Z"/><path class="cls-3" d="M136,123.4c9,0,17.83.14,26.22.41-.22-2.06-.45-4.16-.68-6.27-.89-8.3-1.79-17.15-2.7-25.45-1.59-13.3-3.15-24.78-4.37-30.1-3.29,30.42-16.58,55.19-32.79,55.19a19,19,0,0,1-11.08-3.82c-.14,1.27-.44,2.54-.58,3.81-.24,2.24-.46,4.47-.66,6.65C117.83,123.55,126.76,123.4,136,123.4Z"/><path class="cls-1" d="M108.54,56.92a6.39,6.39,0,0,1-3.44-2,19.47,19.47,0,0,0-2.74.81,8.11,8.11,0,0,1-5.76,0,21.29,21.29,0,0,0-7.06-1.29,30.28,30.28,0,0,0-9.75,1.23c0,1.1,0,2.1,0,3.09a1.89,1.89,0,0,0,.34.72,10.75,10.75,0,0,1,1,1.67c.48,1.36.81,2.77,1.28,4.12A3.87,3.87,0,0,0,85.61,68a34.22,34.22,0,0,0,5.54.35,6.44,6.44,0,0,0,3.07-.79,30.53,30.53,0,0,1,2.25-6.43c1.44-2.86,3.74-3,5.3,0a27.11,27.11,0,0,1,2.14,5.92,4.61,4.61,0,0,0,1.92.94,16.1,16.1,0,0,0,7.34.08,5.25,5.25,0,0,0,1.12-.36c.26-1.49.5-2.86.74-4.06A9.07,9.07,0,0,1,108.54,56.92Z"/><path class="cls-4" d="M106.44,79.8a35.82,35.82,0,0,0-1-6c-.57-2.27-1-4.54-1.54-6.77a27.11,27.11,0,0,0-2.14-5.92c-1.56-3-3.86-2.86-5.3,0a30.53,30.53,0,0,0-2.25,6.43c-.5,2.07-.91,4.17-1.44,6.26a35.79,35.79,0,0,0-1,6c-.25,3.1,1.78,5.77,4.33,5.77h6C104.66,85.57,106.68,82.9,106.44,79.8ZM100,72.41c0,1.36,0,2.71-.12,4-.14,1.63-.21,3.26-.46,4.78-.18,1.08-.47,1.13-.66,0-.26-1.51-.32-3.15-.46-4.78-.11-1.34-.15-2.69-.13-4a5.51,5.51,0,0,1-3.59-4.59,9.08,9.08,0,0,0,9,0A5.5,5.5,0,0,1,100,72.41Z"/><path class="cls-5" d="M94.61,67.82a5.51,5.51,0,0,0,3.59,4.59c0,1.36,0,2.71.13,4,.14,1.63.2,3.27.46,4.78.19,1.13.48,1.08.66,0,.25-1.52.32-3.15.46-4.78.11-1.34.14-2.69.12-4a5.5,5.5,0,0,0,3.6-4.59,9.08,9.08,0,0,1-9,0Z"/><path class="cls-1" d="M163.16,56.92a9.1,9.1,0,0,1-6.36,6.71c.21,1.06.42,2.27.65,3.65a3.78,3.78,0,0,0,1.84.74,34.29,34.29,0,0,0,5.54.35,6.48,6.48,0,0,0,3.08-.79,29.94,29.94,0,0,1,2.24-6.43c1.44-2.86,3.74-3,5.3,0a27.11,27.11,0,0,1,2.14,5.92,4.61,4.61,0,0,0,1.92.94,16.1,16.1,0,0,0,7.34.08,4.36,4.36,0,0,0,3.51-3c.42-1.25.79-2.51,1.13-3.78.19-.71.27-1.44,1.08-1.8.16-.07.26-.43.27-.66,0-1,0-2.05,0-3.27-2-.33-3.94-.76-5.9-.93A24.1,24.1,0,0,0,176,55.76a8.11,8.11,0,0,1-5.76,0,21.08,21.08,0,0,0-3.54-1A6.41,6.41,0,0,1,163.16,56.92Z"/><path class="cls-4" d="M180.12,79.8a36.86,36.86,0,0,0-1-6c-.58-2.27-1-4.54-1.55-6.77a27.11,27.11,0,0,0-2.14-5.92c-1.56-3-3.86-2.86-5.3,0a29.94,29.94,0,0,0-2.24,6.43c-.51,2.07-.92,4.17-1.45,6.26a36.86,36.86,0,0,0-1,6c-.25,3.1,1.78,5.77,4.33,5.77h6C178.34,85.57,180.36,82.9,180.12,79.8Zm-6.41-7.39a39,39,0,0,1-.12,4c-.14,1.63-.21,3.26-.46,4.78-.18,1.08-.47,1.13-.66,0-.26-1.51-.32-3.15-.46-4.78-.11-1.34-.15-2.69-.13-4a5.51,5.51,0,0,1-3.59-4.59,9.08,9.08,0,0,0,9,0A5.5,5.5,0,0,1,173.71,72.41Z"/><path class="cls-5" d="M168.29,67.82a5.51,5.51,0,0,0,3.59,4.59c0,1.36,0,2.71.13,4,.14,1.63.2,3.27.46,4.78.19,1.13.48,1.08.66,0,.25-1.52.32-3.15.46-4.78a39,39,0,0,0,.12-4,5.5,5.5,0,0,0,3.6-4.59,9.08,9.08,0,0,1-9,0Z"/><path class="cls-5" d="M187.7,75.94c1,4.27,2.23,13.48,3.5,24.14C190.09,90,188.94,81,187.7,75.94Z"/><g id="IgKKMw"><path class="cls-2" d="M111.75,36.76a38.51,38.51,0,0,1,12.17-1.54,27,27,0,0,1,8.8,1.61,10.07,10.07,0,0,0,7.17,0,30,30,0,0,1,13.61-1.44c2.45.22,4.87.76,7.35,1.16,0,1.53,0,2.81,0,4.08,0,.29-.13.74-.33.82-1,.45-1.12,1.36-1.35,2.25-.43,1.58-.89,3.16-1.41,4.71a5.45,5.45,0,0,1-4.38,3.79,20.06,20.06,0,0,1-9.15-.1,5.32,5.32,0,0,1-3.74-2.92c-.94-1.94-1.85-3.9-2.87-5.8a2.14,2.14,0,0,0-1.38-1c-.39,0-1,.57-1.23,1a33.13,33.13,0,0,0-2,4.21,7.26,7.26,0,0,1-7.07,5,44.4,44.4,0,0,1-6.91-.45,4.78,4.78,0,0,1-4-3.37c-.59-1.69-1-3.45-1.6-5.14a13.26,13.26,0,0,0-1.2-2.09,2.26,2.26,0,0,1-.42-.89C111.72,39.38,111.75,38.14,111.75,36.76Z"/></g><path class="cls-4" d="M143.76,59.37c-1.36-5.39-2-10.81-4.6-15.82-1.94-3.72-4.81-3.57-6.61,0-2.53,5-3.24,10.43-4.6,15.82a45.15,45.15,0,0,0-1.22,7.43C126.42,70.66,129,74,132.12,74h7.47c3.17,0,5.7-3.33,5.39-7.19A46.23,46.23,0,0,0,143.76,59.37Z"/><path class="cls-1" d="M141.48,51.87a11.36,11.36,0,0,1-11.25,0c.51,2.88,2.27,5.13,4.48,5.71,0,1.7,0,3.39.16,5.05.17,2,.25,4.08.57,6,.24,1.41.6,1.35.82,0,.32-1.9.41-3.93.58-6,.13-1.66.18-3.35.16-5.05C139.21,57,141,54.75,141.48,51.87Z"/><path class="cls-2" d="M87.72,120.21c9.93,0,18.49-11.59,23.15-27.93,1.11-8.91,2.32-18,3.42-24.55a5.25,5.25,0,0,1-1.12.36,16.1,16.1,0,0,1-7.34-.08,4.61,4.61,0,0,1-1.92-.94c.56,2.23,1,4.5,1.54,6.77a35.82,35.82,0,0,1,1,6c.24,3.1-1.78,5.77-4.33,5.77h-6c-2.55,0-4.58-2.67-4.33-5.77a35.79,35.79,0,0,1,1-6c.53-2.09.94-4.19,1.44-6.26a6.44,6.44,0,0,1-3.07.79A34.22,34.22,0,0,1,85.61,68a3.87,3.87,0,0,1-3.23-2.71c-.47-1.35-.8-2.76-1.28-4.12a10.75,10.75,0,0,0-1-1.67,1.89,1.89,0,0,1-.34-.72c0-1,0-2,0-3.09a30.28,30.28,0,0,1,9.75-1.23,21.29,21.29,0,0,1,7.06,1.29,8.11,8.11,0,0,0,5.76,0A19.47,19.47,0,0,1,105.1,55a6.43,6.43,0,0,1-.79-7.68,9.11,9.11,0,0,1-2.18-11,5.6,5.6,0,0,0-3-.86,5.7,5.7,0,0,0-5.63,4.88,3.58,3.58,0,0,0-6.37,1.62c-1.36-4.48-1.4-8.41-1.77-13.64-.13-1.7-2-3.21-4-.71-4.75,6.08-4.54,15.53-3.2,17.63a5.86,5.86,0,0,0,2.3,2A3.58,3.58,0,0,0,77.7,53a5.69,5.69,0,0,0-1.44,10.83,3.59,3.59,0,0,0,2.19,6.56l.17,0a4.82,4.82,0,0,0,.09.86h0A5.68,5.68,0,0,0,84.31,76h0c-1.58,6.82-4,26.36-6,44.24.11-1,.35-2,.46-3A15.23,15.23,0,0,0,87.72,120.21Z"/><path class="cls-5" d="M108,117c.63-5.77,1.68-15.12,2.86-24.67-4.66,16.34-13.22,27.93-23.15,27.93a15.23,15.23,0,0,1-8.89-3.07c-.11,1-.35,2-.46,3-.2,1.82-.37,3.61-.54,5.38,9-.74,18.9-1.31,29.49-1.68C107.53,121.62,107.75,119.3,108,117Z"/><path class="cls-2" d="M187.7,75.94a5.68,5.68,0,0,0,5.5-4.68h0a5.39,5.39,0,0,0,.1-.9l.17,0a3.59,3.59,0,0,0,2.19-6.56A5.69,5.69,0,0,0,194.22,53a3.58,3.58,0,0,0-2.76-5.79,5.82,5.82,0,0,0,2.31-2c1.34-2.1,1.55-11.55-3.2-17.63-2-2.5-3.88-1-4,.71-.37,5.23-.42,9.16-1.77,13.64a3.59,3.59,0,0,0-6.36-1.64,5.69,5.69,0,0,0-8.81-3.89,9.1,9.1,0,0,1-2.23,10.9,6.44,6.44,0,0,1-.66,7.54,21.08,21.08,0,0,1,3.54,1,8.11,8.11,0,0,0,5.76,0A24.1,24.1,0,0,1,187,54.61c2,.17,3.91.6,5.9.93,0,1.22,0,2.25,0,3.27,0,.23-.11.59-.27.66-.81.36-.89,1.09-1.08,1.8-.34,1.27-.71,2.53-1.13,3.78a4.36,4.36,0,0,1-3.51,3,16.1,16.1,0,0,1-7.34-.08,4.61,4.61,0,0,1-1.92-.94c.56,2.23,1,4.5,1.55,6.77a36.86,36.86,0,0,1,1,6c.24,3.1-1.78,5.77-4.33,5.77h-6c-2.55,0-4.58-2.67-4.33-5.77a36.86,36.86,0,0,1,1-6c.53-2.09.94-4.19,1.45-6.26a6.48,6.48,0,0,1-3.08.79,34.29,34.29,0,0,1-5.54-.35,3.78,3.78,0,0,1-1.84-.74c1.52,9.16,3.53,25.4,6.18,50.05.09.86.19,1.73.28,2.62C175.76,117.59,185.23,98.74,187.7,75.94Z"/><path class="cls-5" d="M193.37,120.49c-.72-6.66-1.44-13.75-2.17-20.41-1.27-10.66-2.52-19.87-3.5-24.14-2.47,22.8-11.94,41.65-23.79,44q.21,1.9.42,3.93c10.63.37,20.58.94,29.58,1.68Q193.66,123.06,193.37,120.49Z"/><path class="cls-1" d="M162.18,123.81h.15q-.33-3.09-.67-6.27c-.92-8.5-1.89-17.31-2.86-25.45.91,8.3,1.81,17.15,2.7,25.45C161.73,119.65,162,121.75,162.18,123.81Z"/><path class="cls-3" d="M154.43,62c1.22,5.32,2.78,16.8,4.37,30.1C157.41,79.54,156,68.24,154.43,62Z"/><path class="cls-3" d="M110,117.17c-.24,2.24-.48,4.47-.72,6.65h.06C109.52,121.64,109.74,119.41,110,117.17Z"/><text class="cls-6" transform="translate(83.51 237.43)">Hub</text></g></g></svg>